<svg width="640" height="123" viewBox="0 0 640 123" fill="none" xmlns="http://www.w3.org/2000/svg">
<path d="M80.49 98.39H33.23L25.41 121H0.42L43.09 2.16999H70.8L113.47 121H88.31L80.49 98.39ZM74.03 79.35L56.86 29.71L39.69 79.35H74.03ZM213.739 60.14C220.426 61.3867 225.923 64.73 230.229 70.17C234.536 75.61 236.689 81.8433 236.689 88.87C236.689 95.2167 235.103 100.827 231.929 105.7C228.869 110.46 224.393 114.2 218.499 116.92C212.606 119.64 205.636 121 197.589 121H146.419V2.34H195.379C203.426 2.34 210.339 3.64333 216.119 6.25C222.013 8.85666 226.433 12.4833 229.379 17.13C232.439 21.7767 233.969 27.0467 233.969 32.94C233.969 39.8533 232.099 45.6333 228.359 50.28C224.733 54.9267 219.859 58.2133 213.739 60.14ZM170.219 51.3H191.979C197.646 51.3 202.009 50.0533 205.069 47.56C208.129 44.9533 209.659 41.27 209.659 36.51C209.659 31.75 208.129 28.0667 205.069 25.46C202.009 22.8533 197.646 21.55 191.979 21.55H170.219V51.3ZM194.189 101.62C199.969 101.62 204.446 100.26 207.619 97.54C210.906 94.82 212.549 90.9667 212.549 85.98C212.549 80.88 210.849 76.9133 207.449 74.08C204.049 71.1333 199.459 69.66 193.679 69.66H170.219V101.62H194.189ZM327.738 122.19C316.631 122.19 306.431 119.583 297.138 114.37C287.844 109.157 280.478 101.96 275.038 92.78C269.598 83.4867 266.878 73.0033 266.878 61.33C266.878 49.77 269.598 39.4 275.038 30.22C280.478 20.9267 287.844 13.6733 297.138 8.45999C306.431 3.24666 316.631 0.639999 327.738 0.639999C338.958 0.639999 349.158 3.24666 358.338 8.45999C367.631 13.6733 374.941 20.9267 380.268 30.22C385.708 39.4 388.428 49.77 388.428 61.33C388.428 73.0033 385.708 83.4867 380.268 92.78C374.941 101.96 367.631 109.157 358.338 114.37C349.044 119.583 338.844 122.19 327.738 122.19ZM327.738 100.94C334.878 100.94 341.168 99.3533 346.608 96.18C352.048 92.8933 356.298 88.2467 359.358 82.24C362.418 76.2333 363.948 69.2633 363.948 61.33C363.948 53.3967 362.418 46.4833 359.358 40.59C356.298 34.5833 352.048 29.9933 346.608 26.82C341.168 23.6467 334.878 22.06 327.738 22.06C320.598 22.06 314.251 23.6467 308.698 26.82C303.258 29.9933 299.008 34.5833 295.948 40.59C292.888 46.4833 291.358 53.3967 291.358 61.33C291.358 69.2633 292.888 76.2333 295.948 82.24C299.008 88.2467 303.258 92.8933 308.698 96.18C314.251 99.3533 320.598 100.94 327.738 100.94ZM446.594 2.34V75.78C446.594 83.8267 448.691 90.0033 452.884 94.31C457.078 98.5033 462.971 100.6 470.564 100.6C478.271 100.6 484.221 98.5033 488.414 94.31C492.608 90.0033 494.704 83.8267 494.704 75.78V2.34H518.674V75.61C518.674 85.6967 516.464 94.2533 512.044 101.28C507.738 108.193 501.901 113.407 494.534 116.92C487.281 120.433 479.178 122.19 470.224 122.19C461.384 122.19 453.338 120.433 446.084 116.92C438.944 113.407 433.278 108.193 429.084 101.28C424.891 94.2533 422.794 85.6967 422.794 75.61V2.34H446.594ZM639.419 2.34V21.55H607.799V121H583.999V21.55H552.379V2.34H639.419Z" fill="#3C3C3C" fill-opacity="0.64"/>
</svg>
