<svg width="19" height="14" viewBox="0 0 19 14" fill="none" xmlns="http://www.w3.org/2000/svg">
<path d="M8.69162 2.96304C9.22591 2.52586 9.30225 1.74029 8.86213 1.20842C8.42202 0.676548 7.6321 0.599783 7.09781 1.03696L8.69162 2.96304ZM1.20323 5.86013L0.235808 6.65171L1.82961 8.57779L2.79703 7.78621L1.20323 5.86013ZM7.09781 1.03696L1.20323 5.86013L2.79703 7.78621L8.69162 2.96304L7.09781 1.03696Z" fill="#F0F0F0"/>
<path d="M6.72281 12.9111C7.22864 13.3809 8.02185 13.3539 8.49449 12.8507C8.96714 12.3475 8.94025 11.5587 8.43442 11.0889L6.72281 12.9111ZM2.85582 5.90742L1.93993 5.05674L0.228325 6.87894L1.14421 7.72962L2.85582 5.90742ZM8.43442 11.0889L2.85582 5.90742L1.14421 7.72962L6.72281 12.9111L8.43442 11.0889Z" fill="#F0F0F0"/>
<path d="M2.86194 6.79175H17" stroke="#F0F0F0" stroke-width="2.5" stroke-linecap="round"/>
</svg>
