<svg width="346" height="86" viewBox="0 0 346 86" fill="none" xmlns="http://www.w3.org/2000/svg">
<path d="M62.28 1.24V14.8H39.96V85H23.16V14.8H0.84V1.24H62.28ZM137.898 69.04H104.538L99.0178 85H81.3778L111.498 1.11999H131.058L161.178 85H143.418L137.898 69.04ZM133.338 55.6L121.218 20.56L109.098 55.6H133.338ZM180.356 43C180.356 34.76 182.196 27.4 185.876 20.92C189.636 14.36 194.716 9.27999 201.116 5.68C207.596 2 214.836 0.159998 222.836 0.159998C232.196 0.159998 240.396 2.56 247.436 7.36C254.476 12.16 259.396 18.8 262.196 27.28H242.876C240.956 23.28 238.236 20.28 234.716 18.28C231.276 16.28 227.276 15.28 222.716 15.28C217.836 15.28 213.476 16.44 209.636 18.76C205.876 21 202.916 24.2 200.756 28.36C198.676 32.52 197.636 37.4 197.636 43C197.636 48.52 198.676 53.4 200.756 57.64C202.916 61.8 205.876 65.04 209.636 67.36C213.476 69.6 217.836 70.72 222.716 70.72C227.276 70.72 231.276 69.72 234.716 67.72C238.236 65.64 240.956 62.6 242.876 58.6H262.196C259.396 67.16 254.476 73.84 247.436 78.64C240.476 83.36 232.276 85.72 222.836 85.72C214.836 85.72 207.596 83.92 201.116 80.32C194.716 76.64 189.636 71.56 185.876 65.08C182.196 58.6 180.356 51.24 180.356 43ZM345.546 1.24V14.8H323.226V85H306.426V14.8H284.106V1.24H345.546Z" fill="#3C3C3C" fill-opacity="0.64"/>
</svg>
