<svg width="184" height="43" viewBox="0 0 184 43" fill="none" xmlns="http://www.w3.org/2000/svg">
<path d="M26.5 0.619999V7.4H9.04V18.14H22.42V24.8H9.04V42.5H0.64V0.619999H26.5ZM56.6964 42.92C52.7764 42.92 49.1764 42 45.8964 40.16C42.6164 38.32 40.0164 35.78 38.0964 32.54C36.1764 29.26 35.2164 25.56 35.2164 21.44C35.2164 17.36 36.1764 13.7 38.0964 10.46C40.0164 7.18 42.6164 4.62 45.8964 2.78C49.1764 0.939999 52.7764 0.0199997 56.6964 0.0199997C60.6564 0.0199997 64.2564 0.939999 67.4964 2.78C70.7764 4.62 73.3564 7.18 75.2364 10.46C77.1564 13.7 78.1164 17.36 78.1164 21.44C78.1164 25.56 77.1564 29.26 75.2364 32.54C73.3564 35.78 70.7764 38.32 67.4964 40.16C64.2164 42 60.6164 42.92 56.6964 42.92ZM56.6964 35.42C59.2164 35.42 61.4364 34.86 63.3564 33.74C65.2764 32.58 66.7764 30.94 67.8564 28.82C68.9364 26.7 69.4764 24.24 69.4764 21.44C69.4764 18.64 68.9364 16.2 67.8564 14.12C66.7764 12 65.2764 10.38 63.3564 9.26C61.4364 8.14 59.2164 7.58 56.6964 7.58C54.1764 7.58 51.9364 8.14 49.9764 9.26C48.0564 10.38 46.5564 12 45.4764 14.12C44.3964 16.2 43.8564 18.64 43.8564 21.44C43.8564 24.24 44.3964 26.7 45.4764 28.82C46.5564 30.94 48.0564 32.58 49.9764 33.74C51.9364 34.86 54.1764 35.42 56.6964 35.42ZM97.5658 35.84H111.366V42.5H89.1658V0.619999H97.5658V35.84ZM129.905 0.619999V42.5H121.505V0.619999H129.905ZM162.444 42.92C158.524 42.92 154.924 42 151.644 40.16C148.364 38.32 145.764 35.78 143.844 32.54C141.924 29.26 140.964 25.56 140.964 21.44C140.964 17.36 141.924 13.7 143.844 10.46C145.764 7.18 148.364 4.62 151.644 2.78C154.924 0.939999 158.524 0.0199997 162.444 0.0199997C166.404 0.0199997 170.004 0.939999 173.244 2.78C176.524 4.62 179.104 7.18 180.984 10.46C182.904 13.7 183.864 17.36 183.864 21.44C183.864 25.56 182.904 29.26 180.984 32.54C179.104 35.78 176.524 38.32 173.244 40.16C169.964 42 166.364 42.92 162.444 42.92ZM162.444 35.42C164.964 35.42 167.184 34.86 169.104 33.74C171.024 32.58 172.524 30.94 173.604 28.82C174.684 26.7 175.224 24.24 175.224 21.44C175.224 18.64 174.684 16.2 173.604 14.12C172.524 12 171.024 10.38 169.104 9.26C167.184 8.14 164.964 7.58 162.444 7.58C159.924 7.58 157.684 8.14 155.724 9.26C153.804 10.38 152.304 12 151.224 14.12C150.144 16.2 149.604 18.64 149.604 21.44C149.604 24.24 150.144 26.7 151.224 28.82C152.304 30.94 153.804 32.58 155.724 33.74C157.684 34.86 159.924 35.42 162.444 35.42Z" fill="#3C3C3C" fill-opacity="0.64"/>
</svg>
