<svg width="28" height="28" viewBox="0 0 28 28" fill="none" xmlns="http://www.w3.org/2000/svg">
<path d="M8.60491 0C4.34085 0 0.872314 3.66561 0.872314 8.16895V19.8356C0.872314 24.3378 4.34406 28 8.60922 28H19.6589C23.9229 28 27.3915 24.3344 27.3915 19.8311V8.16439C27.3915 3.66222 23.9197 0 19.6546 0H8.60491ZM21.8666 4.66667C22.4766 4.66667 22.9716 5.18933 22.9716 5.83333C22.9716 6.47733 22.4766 7 21.8666 7C21.2567 7 20.7617 6.47733 20.7617 5.83333C20.7617 5.18933 21.2567 4.66667 21.8666 4.66667ZM14.1319 7C17.7882 7 20.7617 10.1395 20.7617 14C20.7617 17.8605 17.7882 21 14.1319 21C10.4756 21 7.5021 17.8605 7.5021 14C7.5021 10.1395 10.4756 7 14.1319 7ZM14.1319 9.33333C12.9597 9.33333 11.8355 9.825 11.0066 10.7002C10.1777 11.5753 9.71203 12.7623 9.71203 14C9.71203 15.2377 10.1777 16.4247 11.0066 17.2998C11.8355 18.175 12.9597 18.6667 14.1319 18.6667C15.3041 18.6667 16.4283 18.175 17.2572 17.2998C18.0861 16.4247 18.5517 15.2377 18.5517 14C18.5517 12.7623 18.0861 11.5753 17.2572 10.7002C16.4283 9.825 15.3041 9.33333 14.1319 9.33333Z" fill="white"/>
</svg>
