<svg width="181" height="418" viewBox="0 0 181 418" fill="none" xmlns="http://www.w3.org/2000/svg">
<path d="M46.76 18.92C46.76 22.1733 46.0133 25.16 44.52 27.88C43.0267 30.5467 40.7333 32.7067 37.64 34.36C34.5467 36.0133 30.7067 36.84 26.12 36.84H17.64V57H3.96V0.839998H26.12C30.6 0.839998 34.3867 1.61333 37.48 3.16C40.5733 4.70666 42.8933 6.84 44.44 9.56C45.9867 12.28 46.76 15.4 46.76 18.92ZM25.08 25.96C27.6933 25.96 29.64 25.3467 30.92 24.12C32.2 22.8933 32.84 21.16 32.84 18.92C32.84 16.68 32.2 14.9467 30.92 13.72C29.64 12.4933 27.6933 11.88 25.08 11.88H17.64V25.96H25.08ZM90.0419 57.56C84.7619 57.56 79.9085 56.3333 75.4819 53.88C71.1085 51.4267 67.6152 48.0133 65.0019 43.64C62.4419 39.2133 61.1619 34.2533 61.1619 28.76C61.1619 23.2667 62.4419 18.3333 65.0019 13.96C67.6152 9.58667 71.1085 6.17333 75.4819 3.72C79.9085 1.26667 84.7619 0.039999 90.0419 0.039999C95.3219 0.039999 100.149 1.26667 104.522 3.72C108.949 6.17333 112.415 9.58667 114.922 13.96C117.482 18.3333 118.762 23.2667 118.762 28.76C118.762 34.2533 117.482 39.2133 114.922 43.64C112.362 48.0133 108.895 51.4267 104.522 53.88C100.149 56.3333 95.3219 57.56 90.0419 57.56ZM90.0419 45.08C94.5219 45.08 98.0952 43.5867 100.762 40.6C103.482 37.6133 104.842 33.6667 104.842 28.76C104.842 23.8 103.482 19.8533 100.762 16.92C98.0952 13.9333 94.5219 12.44 90.0419 12.44C85.5085 12.44 81.8819 13.9067 79.1619 16.84C76.4952 19.7733 75.1619 23.7467 75.1619 28.76C75.1619 33.72 76.4952 37.6933 79.1619 40.68C81.8819 43.6133 85.5085 45.08 90.0419 45.08ZM164.612 57L152.932 35.8H149.652V57H135.972V0.839998H158.932C163.359 0.839998 167.119 1.61333 170.212 3.16C173.359 4.70666 175.706 6.84 177.252 9.56C178.799 12.2267 179.573 15.2133 179.573 18.52C179.573 22.2533 178.506 25.5867 176.372 28.52C174.292 31.4533 171.199 33.5333 167.092 34.76L180.052 57H164.612ZM149.652 26.12H158.132C160.639 26.12 162.506 25.5067 163.732 24.28C165.012 23.0533 165.652 21.32 165.652 19.08C165.652 16.9467 165.012 15.2667 163.732 14.04C162.506 12.8133 160.639 12.2 158.132 12.2H149.652V26.12ZM44.36 120.84V131.8H29.48V177H15.8V131.8H0.92V120.84H44.36ZM97.3856 120.84V131.8H74.5056V143.64H91.6256V154.28H74.5056V177H60.8256V120.84H97.3856ZM140.736 177.56C135.456 177.56 130.602 176.333 126.176 173.88C121.802 171.427 118.309 168.013 115.696 163.64C113.136 159.213 111.856 154.253 111.856 148.76C111.856 143.267 113.136 138.333 115.696 133.96C118.309 129.587 121.802 126.173 126.176 123.72C130.602 121.267 135.456 120.04 140.736 120.04C146.016 120.04 150.842 121.267 155.216 123.72C159.642 126.173 163.109 129.587 165.616 133.96C168.176 138.333 169.456 143.267 169.456 148.76C169.456 154.253 168.176 159.213 165.616 163.64C163.056 168.013 159.589 171.427 155.216 173.88C150.842 176.333 146.016 177.56 140.736 177.56ZM140.736 165.08C145.216 165.08 148.789 163.587 151.456 160.6C154.176 157.613 155.536 153.667 155.536 148.76C155.536 143.8 154.176 139.853 151.456 136.92C148.789 133.933 145.216 132.44 140.736 132.44C136.202 132.44 132.576 133.907 129.856 136.84C127.189 139.773 125.856 143.747 125.856 148.76C125.856 153.72 127.189 157.693 129.856 160.68C132.576 163.613 136.202 165.08 140.736 165.08ZM17.64 286.44H35.56V297H3.96V240.84H17.64V286.44ZM65.365 240.84V297H51.685V240.84H65.365ZM30.52 417.56C25.24 417.56 20.3867 416.333 15.96 413.88C11.5867 411.427 8.09333 408.013 5.48 403.64C2.92 399.213 1.64 394.253 1.64 388.76C1.64 383.267 2.92 378.333 5.48 373.96C8.09333 369.587 11.5867 366.173 15.96 363.72C20.3867 361.267 25.24 360.04 30.52 360.04C35.8 360.04 40.6267 361.267 45 363.72C49.4267 366.173 52.8933 369.587 55.4 373.96C57.96 378.333 59.24 383.267 59.24 388.76C59.24 394.253 57.96 399.213 55.4 403.64C52.84 408.013 49.3733 411.427 45 413.88C40.6267 416.333 35.8 417.56 30.52 417.56ZM30.52 405.08C35 405.08 38.5733 403.587 41.24 400.6C43.96 397.613 45.32 393.667 45.32 388.76C45.32 383.8 43.96 379.853 41.24 376.92C38.5733 373.933 35 372.44 30.52 372.44C25.9867 372.44 22.36 373.907 19.64 376.84C16.9733 379.773 15.64 383.747 15.64 388.76C15.64 393.72 16.9733 397.693 19.64 400.68C22.36 403.613 25.9867 405.08 30.52 405.08Z" fill="#3C3C3C" fill-opacity="0.64"/>
</svg>
