<svg width="29" height="25" viewBox="0 0 29 25" fill="none" xmlns="http://www.w3.org/2000/svg">
<path d="M28.7302 3.0996C27.6727 3.59543 26.5368 3.9291 25.3446 4.0796C26.5622 3.3096 27.4959 2.09043 27.9357 0.636763C26.7976 1.3496 25.5357 1.8676 24.1921 2.1476C23.117 0.937763 21.5855 0.181763 19.8905 0.181763C16.6352 0.181763 13.9966 2.96893 13.9966 6.40476C13.9966 6.89243 14.0496 7.36843 14.1491 7.82226C9.25076 7.56326 4.90825 5.08526 1.99999 1.31926C1.49391 2.2386 1.20331 3.30726 1.20331 4.44943C1.20331 6.60776 2.24308 8.51293 3.82428 9.62826C2.85854 9.5956 1.94916 9.3156 1.15469 8.8501C1.15469 8.87693 1.15469 8.90143 1.15469 8.92826C1.15469 11.9441 3.18561 14.4594 5.88283 15.0299C5.38891 15.1723 4.86737 15.2481 4.32925 15.2481C3.95025 15.2481 3.58008 15.2084 3.22097 15.1373C3.97124 17.6094 6.14802 19.4096 8.72701 19.4598C6.71045 21.1293 4.16903 22.1244 1.40662 22.1244C0.931485 22.1244 0.461875 22.0953 0 22.0369C2.60882 23.8021 5.70604 24.8323 9.03529 24.8323C19.8772 24.8323 25.8042 15.3496 25.8042 7.12576C25.8042 6.85626 25.7987 6.58793 25.7877 6.32076C26.9401 5.44226 27.9401 4.34676 28.7302 3.0996Z" fill="white"/>
</svg>
